HIERARCHY
ROOT Hip
{
	OFFSET 0 1.131 0.0052
	CHANNELS 6 Xposition Yposition Zposition Xrotation Yrotation Zrotation
	JOINT Abdomen
	{
		OFFSET 0 -0.047353 -0.05
		CHANNELS 3 Xrotation Zrotation Yrotation
		JOINT Chest
		{
			OFFSET 0 0.132153 0.007439
			CHANNELS 3 Xrotation Zrotation Yrotation
			JOINT Neck
			{
				OFFSET 0 0.3078 0.006161
				CHANNELS 3 Xrotation Zrotation Yrotation
				JOINT Head_comp
				{
					OFFSET 0 0.0884 0.013
					CHANNELS 3 Xrotation Yrotation Zrotation
					End Site
					{
						OFFSET -0 0.156 0.0624
					}
				}
			}
			JOINT Left_Collar
			{
				OFFSET 0.02282 0.250342 0.017193
				CHANNELS 2 Yrotation Zrotation
				JOINT Left_Shoulder
				{
					OFFSET 0.15421 0 0
					CHANNELS 3 Xrotation Yrotation Zrotation
					JOINT Left_Forearm
					{
						OFFSET 0.265212 0 0
						CHANNELS 2 Yrotation Xrotation
						JOINT Left_Hand
						{
							OFFSET 0.27571 0 0
							CHANNELS 2 Zrotation Yrotation
							JOINT L1ProxPhalanx
							{
								OFFSET 0.014142 0.001733 0.014142
								CHANNELS 3 Yrotation Zrotation Xrotation
								JOINT L1MidPhalanx
								{
									OFFSET 0.04 0 0
									CHANNELS 1 Zrotation
									JOINT L1DistPhalanx
									{
										OFFSET 0.035 0 0
										CHANNELS 1 Zrotation
										End Site
										{
											OFFSET 0.029 -0 -0
										}
									}
								}
							}
							JOINT L2ProxPhalanx
							{
								OFFSET 0.0821037 0.001578 0.0219996
								CHANNELS 2 Yrotation Zrotation
								JOINT L2MidPhalanx
								{
									OFFSET 0.04 0 0
									CHANNELS 1 Zrotation
									JOINT L2DistPhalanx
									{
										OFFSET 0.028 0 0
										CHANNELS 1 Zrotation
										End Site
										{
											OFFSET 0.02 -0 -0
										}
									}
								}
							}
							JOINT L3ProxPhalanx
							{
								OFFSET 0.083 0 0
								CHANNELS 2 Yrotation Zrotation
								JOINT L3MidPhalanx
								{
									OFFSET 0.053 0 0
									CHANNELS 1 Zrotation
									JOINT L3DistPhalanx
									{
										OFFSET 0.03 0 0
										CHANNELS 1 Zrotation
										End Site
										{
											OFFSET 0.023 -0 -0
										}
									}
								}
							}
							JOINT L4ProxPhalanx
							{
								OFFSET 0.077274 -0.000761 -0.0207055
								CHANNELS 2 Yrotation Zrotation
								JOINT L4MidPhalanx
								{
									OFFSET 0.05 0 0
									CHANNELS 1 Zrotation
									JOINT L4DistPhalanx
									{
										OFFSET 0.03 0 0
										CHANNELS 1 Zrotation
										End Site
										{
											OFFSET 0.023 -0 -0
										}
									}
								}
							}
							JOINT L5ProxPhalanx
							{
								OFFSET 0.0675499 -0.001644 -0.039
								CHANNELS 2 Yrotation Zrotation
								JOINT L5MidPhalanx
								{
									OFFSET 0.04 0 0
									CHANNELS 1 Zrotation
									JOINT L5DistPhalanx
									{
										OFFSET 0.021 0 0
										CHANNELS 1 Zrotation
										End Site
										{
											OFFSET 0.022 -0 -0
										}
									}
								}
							}
						}
					}
				}
			}
			JOINT Right_Collar
			{
				OFFSET -0.02282 0.250342 0.017193
				CHANNELS 2 Yrotation Zrotation
				JOINT Right_Shoulder
				{
					OFFSET -0.15421 0 0
					CHANNELS 3 Xrotation Yrotation Zrotation
					JOINT Right_Forearm
					{
						OFFSET -0.265212 0 0
						CHANNELS 2 Yrotation Xrotation
						JOINT Right_Hand
						{
							OFFSET -0.27571 3e-006 0
							CHANNELS 2 Zrotation Yrotation
							JOINT R1ProxPhalanx
							{
								OFFSET -0.014142 0.001733 0.014142
								CHANNELS 3 Yrotation Zrotation Xrotation
								JOINT R1MidPhalanx
								{
									OFFSET -0.04 0 0
									CHANNELS 1 Zrotation
									JOINT R1DistPhalanx
									{
										OFFSET -0.035 0 0
										CHANNELS 1 Zrotation
										End Site
										{
											OFFSET -0.029 -0 -0
										}
									}
								}
							}
							JOINT R2ProxPhalanx
							{
								OFFSET -0.0821037 0.001578 0.0219996
								CHANNELS 2 Yrotation Zrotation
								JOINT R2MidPhalanx
								{
									OFFSET -0.04 0 0
									CHANNELS 1 Zrotation
									JOINT R2DistPhalanx
									{
										OFFSET -0.028 0 0
										CHANNELS 1 Zrotation
										End Site
										{
											OFFSET -0.02 -0 -0
										}
									}
								}
							}
							JOINT R3ProxPhalanx
							{
								OFFSET -0.083 0 0
								CHANNELS 2 Yrotation Zrotation
								JOINT R3MidPhalanx
								{
									OFFSET -0.053 0 0
									CHANNELS 1 Zrotation
									JOINT R3DistPhalanx
									{
										OFFSET -0.03 0 0
										CHANNELS 1 Zrotation
										End Site
										{
											OFFSET -0.023 -0 -0
										}
									}
								}
							}
							JOINT R4ProxPhalanx
							{
								OFFSET -0.077274 -0.000761 -0.0207055
								CHANNELS 2 Yrotation Zrotation
								JOINT R4MidPhalanx
								{
									OFFSET -0.05 0 0
									CHANNELS 1 Zrotation
									JOINT R4DistPhalanx
									{
										OFFSET -0.03 0 0
										CHANNELS 1 Zrotation
										End Site
										{
											OFFSET -0.023 -0 -0
										}
									}
								}
							}
							JOINT R5ProxPhalanx
							{
								OFFSET -0.0675499 -0.001644 -0.039
								CHANNELS 2 Yrotation Zrotation
								JOINT R5MidPhalanx
								{
									OFFSET -0.04 0 0
									CHANNELS 1 Zrotation
									JOINT R5DistPhalanx
									{
										OFFSET -0.021 0 0
										CHANNELS 1 Zrotation
										End Site
										{
											OFFSET -0.022 -0 -0
										}
									}
								}
							}
						}
					}
				}
			}
		}
	}
	JOINT Left_Thigh
	{
		OFFSET 0.1118 -0.1612 -0.0442
		CHANNELS 3 Xrotation Zrotation Yrotation
		JOINT Left_Shin
		{
			OFFSET 0 -0.477856 0
			CHANNELS 1 Xrotation
			JOINT Left_Foot
			{
				OFFSET 0 -0.431952 0
				CHANNELS 2 Xrotation Zrotation
				JOINT Left_Toe
				{
					OFFSET 0 -0.0442 0.119
					CHANNELS 1 Xrotation
					End Site
					{
						OFFSET -0 -0 0.07
					}
				}
			}
		}
	}
	JOINT Right_Thigh
	{
		OFFSET -0.1118 -0.1612 -0.0442
		CHANNELS 3 Xrotation Zrotation Yrotation
		JOINT Right_Shin
		{
			OFFSET 0 -0.477856 0
			CHANNELS 1 Xrotation
			JOINT Right_Foot
			{
				OFFSET 0 -0.431952 0
				CHANNELS 2 Xrotation Zrotation
				JOINT Right_Toe
				{
					OFFSET 0 -0.0442 0.119
					CHANNELS 1 Xrotation
					End Site
					{
						OFFSET -0 -0 0.07
					}
				}
			}
		}
	}
}
MOTION
Frames: 7
Frame Time: 0.009975
-0.0959346 -0.0601721 0.047711 1.0565e-013 4.89345e-008 -5.10987e-006 0 0 0 0 0 0 0 0 0 0 0 0 0 0 -0 0 -0 0 0 0 0 -36.7832 -29.9624 77.4898 -4.76427 -12.2444 -6.63439 -16.4575 -31.3511 -13.5114 -0.647911 -24.507 -18.2419 -18.0941 9.02909 -22.0218 -38.2405 -19.3412 17.3445 -18.4185 -40.523 -37.4487 0 0 -0 0 -0 0 0 0 0 70.2882 62.0194 84.2195 9.86519 5.17547 9.55006 11.5728 19.998 17.6921 -1.01305 -0.959303 6.29503 3.15854 1.17611 -2.01544 3.6274 3.74869 -7.77888 -4.00669 34.8696 -36.3818 0.537268 -0.999181 -0.00936928 0.0240216 -0.561208 0.99923 0 0.548675 -0.999179 -0.00956818 0 -0.548592 0.99923 0 
-0.0959346 -0.0601721 0.047711 1.0565e-013 4.89345e-008 -5.10987e-006 0 0 0 0 0 0 0 0 0 0 0 0 0 0 -0 0 -0 0 0 0 0 -36.7832 -29.9624 77.4898 -4.76427 -12.2444 -6.63439 -16.4575 -31.3511 -13.5114 -0.647911 -24.507 -18.2419 -18.0941 9.02909 -22.0218 -38.2405 -19.3412 17.3445 -18.4185 -40.523 -37.4487 0 0 -0 0 -0 0 0 0 0 70.2882 62.0194 84.2195 9.86519 5.17547 9.55006 11.5728 19.998 17.6921 -1.01305 -0.959303 6.29503 3.15854 1.17611 -2.01544 3.6274 3.74869 -7.77888 -4.00669 34.8696 -36.3818 0.537268 -0.999181 -0.00936928 0.0240216 -0.561208 0.99923 0 0.548675 -0.999179 -0.00956818 0 -0.548592 0.99923 0 
-0.101406 -0.0600574 0.0357841 7.49481e-013 -1.80622e-008 -5.08408e-006 0 -0 0 0 -0 0 0 -0 0 -0.710085 0.291056 -9.06332e-006 -4.63886 -11.2495 -18.2461 -29.5901 -30.0946 -29.0898 19.0209 17.5734 -5.64654 -70.1828 -61.8332 84.2387 -9.99086 -5.24959 -9.50768 -11.6647 -20.098 -17.6786 1.00812 0.794512 -6.46356 -3.23275 -1.16313 1.84539 -3.80926 -3.81995 7.77016 3.86667 -34.8653 36.0999 4.63886 11.2495 -18.2461 29.5901 30.0946 29.0898 19.0209 -17.5734 5.64654 70.1828 61.8332 84.2387 9.99086 5.24959 9.50768 11.6647 20.098 17.6786 -1.00812 -0.794512 6.46356 3.23275 1.16313 -1.84539 3.80926 3.81995 -7.77016 -3.86667 34.8653 -36.0999 -0.213884 -0.654593 0.0024497 0.0239015 0.189968 0.654603 0 -0.202535 -0.654594 0.00231972 2.40276e-006 0.20252 0.654603 0 
-0.10135 -0.0600618 0.0347885 7.53243e-013 -1.81529e-008 -5.10963e-006 0 -0 0 0 -0 0 0 -0 0 -0.711701 0.290721 -2.31411e-010 -4.6621 -11.306 -18.0698 -29.784 -29.2294 -29.4922 19.1144 17.6617 -5.67469 -70.2882 -62.0194 84.2195 -9.86519 -5.17547 -9.55006 -11.5728 -19.998 -17.6921 1.01305 0.959303 -6.29503 -3.15854 -1.17611 2.01544 -3.6274 -3.74869 7.77888 4.00669 -34.8696 36.3818 4.6621 11.306 -18.0698 29.784 29.2294 29.4922 19.1144 -17.6617 5.67469 70.2882 62.0194 84.2195 9.86519 5.17547 9.55006 11.5728 19.998 17.6921 -1.01305 -0.959303 6.29503 3.15854 1.17611 -2.01544 3.6274 3.74869 -7.77888 -4.00669 34.8696 -36.3818 -0.276646 -0.658113 0.0031776 0.0240216 0.252606 0.658126 0 -0.265242 -0.658113 0.00304662 2.41484e-006 0.265222 0.658126 0 
-0.10135 -0.0600618 0.0347733 -3.08433e-012 -2.36957e-008 -5.10961e-006 0 -0 0 0 -0 0 0 -0 0 -0.711675 0.290699 -8.34402e-015 -4.6621 -11.306 -18.0684 -29.7841 -29.2251 -29.4941 19.1144 17.6617 -5.67469 -70.2882 -62.0194 84.2195 -9.86519 -5.17547 -9.55006 -11.5728 -19.998 -17.6921 1.01305 0.959303 -6.29503 -3.15854 -1.17611 2.01544 -3.6274 -3.74869 7.77888 4.00669 -34.8696 36.3818 4.6621 11.306 -18.0684 29.7841 29.2251 29.4941 19.1144 -17.6617 5.67469 70.2882 62.0194 84.2195 9.86519 5.17547 9.55006 11.5728 19.998 17.6921 -1.01305 -0.959303 6.29503 3.15854 1.17611 -2.01544 3.6274 3.74869 -7.77888 -4.00669 34.8696 -36.3818 -0.2776 -0.658117 0.00318858 0.0240216 0.25356 0.65813 0 -0.266195 -0.658118 0.00305758 1.71879e-006 0.266175 0.65813 0 
-0.10135 -0.0600618 0.0347732 1.32769e-012 -2.37397e-008 -5.1096e-006 0 -0 0 0 -0 0 0 -0 0 -0.711675 0.290699 -0 -4.6621 -11.306 -18.0684 -29.7841 -29.2251 -29.4941 19.1144 17.6617 -5.67469 -70.2882 -62.0194 84.2195 -9.86519 -5.17547 -9.55006 -11.5728 -19.998 -17.6921 1.01305 0.959303 -6.29503 -3.15854 -1.17611 2.01544 -3.6274 -3.74869 7.77888 4.00669 -34.8696 36.3818 4.6621 11.306 -18.0684 29.7841 29.2251 29.4941 19.1144 -17.6617 5.67469 70.2882 62.0194 84.2195 9.86519 5.17547 9.55006 11.5728 19.998 17.6921 -1.01305 -0.959303 6.29503 3.15854 1.17611 -2.01544 3.6274 3.74869 -7.77888 -4.00669 34.8696 -36.3818 -0.27761 -0.658117 0.00318869 0.0240216 0.25357 0.65813 0 -0.266204 -0.658118 0.00305769 1.70755e-006 0.266184 0.65813 0 
-0.10135 -0.0600618 0.0347732 8.0392e-013 -2.37401e-008 -5.10961e-006 0 -0 0 0 -0 0 0 -0 0 -0.711675 0.290699 -0 -4.6621 -11.306 -18.0684 -29.7841 -29.2251 -29.4941 19.1144 17.6617 -5.67469 -70.2882 -62.0194 84.2195 -9.86519 -5.17547 -9.55006 -11.5728 -19.998 -17.6921 1.01305 0.959303 -6.29503 -3.15854 -1.17611 2.01544 -3.6274 -3.74869 7.77888 4.00669 -34.8696 36.3818 4.6621 11.306 -18.0684 29.7841 29.2251 29.4941 19.1144 -17.6617 5.67469 70.2882 62.0194 84.2195 9.86519 5.17547 9.55006 11.5728 19.998 17.6921 -1.01305 -0.959303 6.29503 3.15854 1.17611 -2.01544 3.6274 3.74869 -7.77888 -4.00669 34.8696 -36.3818 -0.27761 -0.658117 0.00318869 0.0240216 0.25357 0.65813 0 -0.266204 -0.658118 0.00305769 2.41484e-006 0.266184 0.65813 0 
